<?xml version="1.0" encoding="UTF-8"?>
<svg width="500px" height="250px" viewBox="0 0 500 250" version="1.1" xmlns="http://www.w3.org/2000/svg" xmlns:xlink="http://www.w3.org/1999/xlink">
    <!-- Generator: Sketch 52.6 (67491) - http://www.bohemiancoding.com/sketch -->
    <title>base-image</title>
    <desc>Created with Sketch.</desc>
    <g id="base-image" stroke="none" stroke-width="1" fill="none" fill-rule="evenodd">
        <rect id="Rectangle-2" fill="#EDEDE8" x="0" y="0" width="500" height="250"></rect>
        <path d="M236.333333,111.133333 C236.333333,113.411123 235.536119,115.347214 233.941667,116.941667 C232.347214,118.536119 230.411123,119.333333 228.133333,119.333333 C225.855544,119.333333 223.919452,118.536119 222.325,116.941667 C220.730548,115.347214 219.933333,113.411123 219.933333,111.133333 C219.933333,108.855544 220.730548,106.919452 222.325,105.325 C223.919452,103.730548 225.855544,102.933333 228.133333,102.933333 C230.411123,102.933333 232.347214,103.730548 233.941667,105.325 C235.536119,106.919452 236.333333,108.855544 236.333333,111.133333 Z M280.066667,127.533333 L280.066667,146.666667 L219.933333,146.666667 L219.933333,138.466667 L233.6,124.8 L240.433333,131.633333 L262.3,109.766667 L280.066667,127.533333 Z M284.166667,97.4666667 L215.833333,97.4666667 C215.463193,97.4666667 215.142883,97.6019084 214.872396,97.8723958 C214.601908,98.1428833 214.466667,98.4631926 214.466667,98.8333333 L214.466667,150.766667 C214.466667,151.136807 214.601908,151.457117 214.872396,151.727604 C215.142883,151.998092 215.463193,152.133333 215.833333,152.133333 L284.166667,152.133333 C284.536807,152.133333 284.857117,151.998092 285.127604,151.727604 C285.398092,151.457117 285.533333,151.136807 285.533333,150.766667 L285.533333,98.8333333 C285.533333,98.4631926 285.398092,98.1428833 285.127604,97.8723958 C284.857117,97.6019084 284.536807,97.4666667 284.166667,97.4666667 Z M291,98.8333333 L291,150.766667 C291,152.645843 290.330909,154.254507 288.992708,155.592708 C287.654507,156.930909 286.045843,157.6 284.166667,157.6 L215.833333,157.6 C213.954157,157.6 212.345493,156.930909 211.007292,155.592708 C209.669091,154.254507 209,152.645843 209,150.766667 L209,98.8333333 C209,96.9541573 209.669091,95.3454928 211.007292,94.0072917 C212.345493,92.6690905 213.954157,92 215.833333,92 L284.166667,92 C286.045843,92 287.654507,92.6690905 288.992708,94.0072917 C290.330909,95.3454928 291,96.9541573 291,98.8333333 Z" id="" fill="#A1A2A0"></path>
    </g>
</svg>