<?xml version="1.0" encoding="UTF-8"?>
<svg width="500px" height="250px" viewBox="0 0 500 250" version="1.1" xmlns="http://www.w3.org/2000/svg" xmlns:xlink="http://www.w3.org/1999/xlink">
    <!-- Generator: Sketch 52.6 (67491) - http://www.bohemiancoding.com/sketch -->
    <title>file-alt-success</title>
    <desc>Created with Sketch.</desc>
    <g id="file-alt-success" stroke="none" stroke-width="1" fill="none" fill-rule="evenodd">
        <rect id="Rectangle-2" fill="#EDEDE8" x="0" y="0" width="500" height="250"></rect>
        <path d="M331.531203,240.562496 L314.343744,240.562496 C313.049325,240.562496 312,239.513171 312,238.218752 L312,221.031293 C312,219.736874 313.049325,218.687548 314.343744,218.687548 L331.531203,218.687548 C332.825622,218.687548 333.874948,219.736874 333.874948,221.031293 L333.874948,238.218752 C333.874948,239.513171 332.825622,240.562496 331.531203,240.562496 Z M321.536816,235.77449 L330.521169,226.790137 C330.826201,226.485057 330.826201,225.99034 330.521169,225.685308 L329.416293,224.580431 C329.111261,224.275399 328.616543,224.275351 328.311416,224.580431 L320.984354,231.907493 L317.563532,228.486624 C317.258452,228.181592 316.763735,228.181592 316.458655,228.486624 L315.353778,229.591501 C315.048746,229.896533 315.048746,230.39125 315.353778,230.69633 L320.431891,235.774443 C320.737019,236.079618 321.231688,236.079618 321.536816,235.77449 Z" id="checkmark" fill="#5AA403"></path>
        <path d="M281.535714,176.964286 C282.369052,177.797623 283.08333,178.928564 283.678571,180.357143 C284.273813,181.785721 284.571429,183.095232 284.571429,184.285714 L284.571429,235.714286 C284.571429,236.904768 284.154766,237.916663 283.321429,238.75 C282.488091,239.583337 281.476196,240 280.285714,240 L220.285714,240 C219.095232,240 218.083337,239.583337 217.25,238.75 C216.416663,237.916663 216,236.904768 216,235.714286 L216,164.285714 C216,163.095232 216.416663,162.083337 217.25,161.25 C218.083337,160.416663 219.095232,160 220.285714,160 L260.285714,160 C261.476196,160 262.785707,160.297616 264.214286,160.892857 C265.642864,161.488098 266.773805,162.202377 267.607143,163.035714 L281.535714,176.964286 Z M261.714286,166.071429 L261.714286,182.857143 L278.5,182.857143 C278.202379,181.994043 277.875002,181.38393 277.517857,181.026786 L263.544643,167.053571 C263.187498,166.696427 262.577385,166.369049 261.714286,166.071429 Z M278.857143,234.285714 L278.857143,188.571429 L260.285714,188.571429 C259.095232,188.571429 258.083338,188.154766 257.25,187.321429 C256.416663,186.488091 256,185.476196 256,184.285714 L256,165.714286 L221.714286,165.714286 L221.714286,234.285714 L278.857143,234.285714 Z M233.142857,195.714286 C233.142857,195.297617 233.276784,194.955358 233.544643,194.6875 C233.812501,194.419642 234.15476,194.285714 234.571429,194.285714 L266,194.285714 C266.416669,194.285714 266.758927,194.419642 267.026786,194.6875 C267.294644,194.955358 267.428571,195.297617 267.428571,195.714286 L267.428571,198.571429 C267.428571,198.988097 267.294644,199.330356 267.026786,199.598214 C266.758927,199.866073 266.416669,200 266,200 L234.571429,200 C234.15476,200 233.812501,199.866073 233.544643,199.598214 C233.276784,199.330356 233.142857,198.988097 233.142857,198.571429 L233.142857,195.714286 Z M266,205.714286 C266.416669,205.714286 266.758927,205.848213 267.026786,206.116071 C267.294644,206.38393 267.428571,206.726188 267.428571,207.142857 L267.428571,210 C267.428571,210.416669 267.294644,210.758927 267.026786,211.026786 C266.758927,211.294644 266.416669,211.428571 266,211.428571 L234.571429,211.428571 C234.15476,211.428571 233.812501,211.294644 233.544643,211.026786 C233.276784,210.758927 233.142857,210.416669 233.142857,210 L233.142857,207.142857 C233.142857,206.726188 233.276784,206.38393 233.544643,206.116071 C233.812501,205.848213 234.15476,205.714286 234.571429,205.714286 L266,205.714286 Z M266,217.142857 C266.416669,217.142857 266.758927,217.276784 267.026786,217.544643 C267.294644,217.812501 267.428571,218.15476 267.428571,218.571429 L267.428571,221.428571 C267.428571,221.84524 267.294644,222.187499 267.026786,222.455357 C266.758927,222.723216 266.416669,222.857143 266,222.857143 L234.571429,222.857143 C234.15476,222.857143 233.812501,222.723216 233.544643,222.455357 C233.276784,222.187499 233.142857,221.84524 233.142857,221.428571 L233.142857,218.571429 C233.142857,218.15476 233.276784,217.812501 233.544643,217.544643 C233.812501,217.276784 234.15476,217.142857 234.571429,217.142857 L266,217.142857 Z" id="" fill="#A1A2A0"></path>
    </g>
</svg>