<?xml version="1.0" encoding="UTF-8"?>
<svg width="500px" height="250px" viewBox="0 0 500 250" version="1.1" xmlns="http://www.w3.org/2000/svg" xmlns:xlink="http://www.w3.org/1999/xlink">
    <!-- Generator: Sketch 52.6 (67491) - http://www.bohemiancoding.com/sketch -->
    <title>pdf-success</title>
    <desc>Created with Sketch.</desc>
    <g id="pdf-success" stroke="none" stroke-width="1" fill="none" fill-rule="evenodd">
        <rect id="Rectangle-2" fill="#EDEDE8" x="0" y="0" width="500" height="250"></rect>
        <text id=".PDF" font-family="Lato-Bold, Lato" font-size="60" font-weight="bold" fill="#A1A2A0">
            <tspan x="170" y="237">.PDF</tspan>
        </text>
        <path d="M331.531203,240.562496 L314.343744,240.562496 C313.049325,240.562496 312,239.513171 312,238.218752 L312,221.031293 C312,219.736874 313.049325,218.687548 314.343744,218.687548 L331.531203,218.687548 C332.825622,218.687548 333.874948,219.736874 333.874948,221.031293 L333.874948,238.218752 C333.874948,239.513171 332.825622,240.562496 331.531203,240.562496 Z M321.536816,235.77449 L330.521169,226.790137 C330.826201,226.485057 330.826201,225.99034 330.521169,225.685308 L329.416293,224.580431 C329.111261,224.275399 328.616543,224.275351 328.311416,224.580431 L320.984354,231.907493 L317.563532,228.486624 C317.258452,228.181592 316.763735,228.181592 316.458655,228.486624 L315.353778,229.591501 C315.048746,229.896533 315.048746,230.39125 315.353778,230.69633 L320.431891,235.774443 C320.737019,236.079618 321.231688,236.079618 321.536816,235.77449 Z" id="checkmark" fill="#5AA403"></path>
    </g>
</svg>