<?xml version="1.0" encoding="UTF-8"?>
<svg width="500px" height="250px" viewBox="0 0 500 250" version="1.1" xmlns="http://www.w3.org/2000/svg" xmlns:xlink="http://www.w3.org/1999/xlink">
    <!-- Generator: Sketch 52.6 (67491) - http://www.bohemiancoding.com/sketch -->
    <title>video-success</title>
    <desc>Created with Sketch.</desc>
    <g id="video-success" stroke="none" stroke-width="1" fill="none" fill-rule="evenodd">
        <rect id="Rectangle-2" fill="#EDEDE8" x="0" y="0" width="500" height="250"></rect>
        <path d="M331.531203,240.562496 L314.343744,240.562496 C313.049325,240.562496 312,239.513171 312,238.218752 L312,221.031293 C312,219.736874 313.049325,218.687548 314.343744,218.687548 L331.531203,218.687548 C332.825622,218.687548 333.874948,219.736874 333.874948,221.031293 L333.874948,238.218752 C333.874948,239.513171 332.825622,240.562496 331.531203,240.562496 Z M321.536816,235.77449 L330.521169,226.790137 C330.826201,226.485057 330.826201,225.99034 330.521169,225.685308 L329.416293,224.580431 C329.111261,224.275399 328.616543,224.275351 328.311416,224.580431 L320.984354,231.907493 L317.563532,228.486624 C317.258452,228.181592 316.763735,228.181592 316.458655,228.486624 L315.353778,229.591501 C315.048746,229.896533 315.048746,230.39125 315.353778,230.69633 L320.431891,235.774443 C320.737019,236.079618 321.231688,236.079618 321.536816,235.77449 Z" id="checkmark" fill="#5AA403"></path>
        <path d="M280.989583,177.822917 C281.815976,178.64931 282.524303,179.770826 283.114583,181.1875 C283.704864,182.604174 284,183.902772 284,185.083333 L284,236.083333 C284,237.263895 283.58681,238.267357 282.760417,239.09375 C281.934024,239.920143 280.930561,240.333333 279.75,240.333333 L220.25,240.333333 C219.069439,240.333333 218.065976,239.920143 217.239583,239.09375 C216.41319,238.267357 216,237.263895 216,236.083333 L216,165.25 C216,164.069439 216.41319,163.065976 217.239583,162.239583 C218.065976,161.41319 219.069439,161 220.25,161 L259.916667,161 C261.097228,161 262.395826,161.295136 263.8125,161.885417 C265.229174,162.475697 266.35069,163.184024 267.177083,164.010417 L280.989583,177.822917 Z M261.333333,167.020833 L261.333333,183.666667 L277.979167,183.666667 C277.684026,182.81076 277.359377,182.205731 277.005208,181.851563 L263.148438,167.994792 C262.794269,167.640623 262.18924,167.315974 261.333333,167.020833 Z M278.333333,234.666667 L278.333333,189.333333 L259.916667,189.333333 C258.736105,189.333333 257.732643,188.920143 256.90625,188.09375 C256.079857,187.267357 255.666667,186.263895 255.666667,185.083333 L255.666667,166.666667 L221.666667,166.666667 L221.666667,234.666667 L278.333333,234.666667 Z M250,195 C251.53473,195 252.862842,195.560758 253.984375,196.682292 C255.105908,197.803825 255.666667,199.131937 255.666667,200.666667 L255.666667,217.666667 C255.666667,219.201397 255.105908,220.529508 253.984375,221.651042 C252.862842,222.772575 251.53473,223.333333 250,223.333333 L233,223.333333 C231.46527,223.333333 230.137158,222.772575 229.015625,221.651042 C227.894092,220.529508 227.333333,219.201397 227.333333,217.666667 L227.333333,200.666667 C227.333333,199.131937 227.894092,197.803825 229.015625,196.682292 C230.137158,195.560758 231.46527,195 233,195 L250,195 Z M271.78125,195.088542 C272.371531,195.324654 272.666667,195.767358 272.666667,196.416667 L272.666667,221.916667 C272.666667,222.565975 272.371531,223.008679 271.78125,223.244792 C271.545138,223.30382 271.368056,223.333333 271.25,223.333333 C270.836803,223.333333 270.497397,223.200522 270.231771,222.934896 L258.5,211.158854 L258.5,207.174479 L270.231771,195.398438 C270.497397,195.132811 270.836803,195 271.25,195 C271.368056,195 271.545138,195.029514 271.78125,195.088542 Z" id="-copy" fill="#A1A2A0"></path>
    </g>
</svg>