<?xml version="1.0" encoding="UTF-8"?>
<svg width="500px" height="250px" viewBox="0 0 500 250" version="1.1" xmlns="http://www.w3.org/2000/svg" xmlns:xlink="http://www.w3.org/1999/xlink">
    <!-- Generator: Sketch 52.6 (67491) - http://www.bohemiancoding.com/sketch -->
    <title>custom-image</title>
    <desc>Created with Sketch.</desc>
    <defs>
        <linearGradient x1="50%" y1="100%" x2="50%" y2="0%" id="linearGradient-1">
            <stop stop-color="#808080" stop-opacity="0.25" offset="0%"></stop>
            <stop stop-color="#808080" stop-opacity="0.12" offset="54%"></stop>
            <stop stop-color="#808080" stop-opacity="0.1" offset="100%"></stop>
        </linearGradient>
        <rect id="path-2" x="0.175034483" y="0.235102041" width="46.6077931" height="31.6506122"></rect>
        <rect id="path-4" x="0.175034483" y="0.137142857" width="46.6077931" height="31.6506122"></rect>
        <linearGradient x1="0%" y1="50%" x2="100%" y2="50%" id="linearGradient-6">
            <stop stop-color="#808080" stop-opacity="0.25" offset="0%"></stop>
            <stop stop-color="#808080" stop-opacity="0.12" offset="54%"></stop>
            <stop stop-color="#808080" stop-opacity="0.1" offset="100%"></stop>
        </linearGradient>
        <linearGradient x1="0.00629643622%" y1="50.0018066%" x2="100.006296%" y2="50.0018066%" id="linearGradient-7">
            <stop stop-color="#808080" stop-opacity="0.25" offset="0%"></stop>
            <stop stop-color="#808080" stop-opacity="0.12" offset="54%"></stop>
            <stop stop-color="#808080" stop-opacity="0.1" offset="100%"></stop>
        </linearGradient>
        <linearGradient x1="50.0002221%" y1="100.000449%" x2="50.0002221%" y2="0.00140337287%" id="linearGradient-8">
            <stop stop-color="#B3B3B3" stop-opacity="0.25" offset="0%"></stop>
            <stop stop-color="#B3B3B3" stop-opacity="0.1" offset="54%"></stop>
            <stop stop-color="#B3B3B3" stop-opacity="0.05" offset="100%"></stop>
        </linearGradient>
        <linearGradient x1="49.9800916%" y1="99.9486916%" x2="49.9800916%" y2="0%" id="linearGradient-9">
            <stop stop-color="#000000" stop-opacity="0.12" offset="0%"></stop>
            <stop stop-color="#000000" stop-opacity="0.09" offset="55%"></stop>
            <stop stop-color="#000000" stop-opacity="0.02" offset="100%"></stop>
        </linearGradient>
        <linearGradient x1="49.9885247%" y1="100.005627%" x2="49.9885247%" y2="0.0076852476%" id="linearGradient-10">
            <stop stop-color="#000000" stop-opacity="0.12" offset="0%"></stop>
            <stop stop-color="#000000" stop-opacity="0.09" offset="55%"></stop>
            <stop stop-color="#000000" stop-opacity="0.02" offset="100%"></stop>
        </linearGradient>
    </defs>
    <g id="custom-image" stroke="none" stroke-width="1" fill="none" fill-rule="evenodd">
        <g id="undraw_file_searching_duff" transform="translate(117.000000, 1.000000)">
            <g id="Group" opacity="0.5" transform="translate(49.000000, 42.000000)" fill="url(#linearGradient-1)">
                <rect id="Rectangle" x="0.0477728285" y="0.0672139303" width="142.821648" height="192.871973"></rect>
            </g>
            <rect id="Rectangle" fill="#F2F2F2" x="52" y="44" width="138" height="186"></rect>
            <rect id="Rectangle" fill="#E0E0E0" x="62" y="52" width="48" height="1"></rect>
            <rect id="Rectangle" fill="#3157B3" opacity="0.7" x="62" y="59" width="48" height="1"></rect>
            <rect id="Rectangle" fill="#E0E0E0" x="116" y="52" width="48" height="1"></rect>
            <rect id="Rectangle" fill="#E0E0E0" x="124" y="95" width="48" height="1"></rect>
            <rect id="Rectangle" fill="#E0E0E0" x="125" y="99" width="48" height="1"></rect>
            <rect id="Rectangle" fill="#E0E0E0" x="127" y="103" width="48" height="1"></rect>
            <rect id="Rectangle" fill="#E0E0E0" x="124" y="161" width="48" height="1"></rect>
            <rect id="Rectangle" fill="#E0E0E0" x="125" y="165" width="48" height="1"></rect>
            <rect id="Rectangle" fill="#E0E0E0" x="127" y="169" width="48" height="1"></rect>
            <g id="Group" opacity="0.5" transform="translate(63.000000, 79.000000)" fill="url(#linearGradient-1)">
                <rect id="Rectangle" x="0.00962264151" y="0.0513580247" width="50.9422642" height="51.7303704"></rect>
            </g>
            <rect id="Rectangle" fill="#F5F5F5" x="63" y="81" width="50" height="50"></rect>
            <g id="Group" opacity="0.5" transform="translate(65.000000, 83.000000)" fill="url(#linearGradient-1)">
                <rect id="Rectangle" x="0.172653061" y="0.00326732673" width="46.6163265" height="32.8137624"></rect>
            </g>
            <rect id="e1f34465-d008-41db-868b-e00503fb87b3" fill="#FFFFFF" x="65" y="84" width="46" height="31"></rect>
            <g id="Clipped" transform="translate(121.000000, 103.000000)">
                <mask id="mask-3" fill="white">
                    <use xlink:href="#path-2"></use>
                </mask>
                <g id="cf34cfb5-9399-4bae-9cea-d47bbef6cb3a"></g>
                <g id="Group" mask="url(#mask-3)" fill="#6C63FF" opacity="0.4">
                    <g transform="translate(-63.531034, -18.612245)">
                        <polygon id="Path" points="1.73413793 29.5869388 13.4711724 11.2816327 18.3915862 19.2881633 28.9908966 8.23183673 38.0764828 19.2881633 46.0243448 2.89306122 66.4644828 35.6865306 0.220413793 33.397551"></polygon>
                        <ellipse id="Oval" cx="10.8197241" cy="3.65387755" rx="3.40668966" ry="3.43183673"></ellipse>
                    </g>
                </g>
            </g>
            <g id="Group" opacity="0.5" transform="translate(63.000000, 144.000000)" fill="url(#linearGradient-1)">
                <rect id="Rectangle" x="0.00962264151" y="0.282883436" width="50.9422642" height="52.4017178"></rect>
            </g>
            <rect id="Rectangle" fill="#F5F5F5" x="63" y="146" width="50" height="50"></rect>
            <g id="Group" opacity="0.5" transform="translate(65.000000, 149.000000)" fill="url(#linearGradient-1)">
                <rect id="Rectangle" x="0.172653061" y="0.232941176" width="46.6163265" height="32.4920588"></rect>
            </g>
            <rect id="c95ac4f6-be4d-44a3-92c2-5c8066e2b531" fill="#FFFFFF" x="65" y="149" width="46" height="31"></rect>
            <g id="Clipped" transform="translate(121.000000, 169.000000)">
                <mask id="mask-5" fill="white">
                    <use xlink:href="#path-4"></use>
                </mask>
                <g id="7439734d-5f7c-428f-88ce-e68b86a45c07"></g>
                <g id="Group" mask="url(#mask-5)" fill="#BDBDBD" opacity="0.4">
                    <g transform="translate(-63.531034, -18.612245)">
                        <polygon id="Path" points="1.73413793 29.4889796 13.4711724 11.1836735 18.3915862 19.1934694 28.9908966 8.13387755 38.0764828 19.1934694 46.0243448 2.79510204 66.4644828 35.5885714 0.220413793 33.3028571"></polygon>
                        <ellipse id="Oval" cx="10.8197241" cy="3.55918367" rx="3.40668966" ry="3.43183673"></ellipse>
                    </g>
                </g>
            </g>
            <g id="Group" opacity="0.5" transform="translate(71.000000, 32.000000)" fill="url(#linearGradient-6)">
                <polygon id="Rectangle" transform="translate(89.042717, 108.551896) rotate(-78.760000) translate(-89.042717, -108.551896) " points="-7.18593005 37.2115009 184.943092 37.6214538 185.271364 179.892291 -6.85765845 179.482338"></polygon>
            </g>
            <polygon id="Rectangle" fill="#FFFFFF" transform="translate(159.081580, 139.657682) rotate(-78.760000) translate(-159.081580, -139.657682) " points="66.0915479 70.2801155 252.102708 70.2384865 252.071612 209.035248 66.0604518 209.076877"></polygon>
            <polygon id="Rectangle" fill="#E0E0E0" transform="translate(165.509159, 55.622451) rotate(11.240000) translate(-165.509159, -55.622451) " points="116.257755 54.864596 214.760229 54.8866646 214.760563 56.3803063 116.258089 56.3582377"></polygon>
            <polygon id="Rectangle" fill="#E0E0E0" transform="translate(138.020218, 194.112092) rotate(11.240000) translate(-138.020218, -194.112092) " points="88.7688142 193.354237 187.271288 193.376306 187.271622 194.869947 88.7691485 194.847879"></polygon>
            <polygon id="Rectangle" fill="#E0E0E0" transform="translate(125.366285, 200.351126) rotate(11.240000) translate(-125.366285, -200.351126) " points="87.3082715 199.595779 163.423965 199.612832 163.424299 201.106474 87.3086058 201.089421"></polygon>
            <polygon id="Rectangle" fill="#3157B3" opacity="0.7" transform="translate(100.273058, 204.120301) rotate(11.240000) translate(-100.273058, -204.120301) " points="86.0954481 203.370304 114.450333 203.376657 114.450667 204.870298 86.0957824 204.863946"></polygon>
            <polygon id="Rectangle" fill="#3157B3" opacity="0.7" transform="translate(139.680712, 59.244969) rotate(11.240000) translate(-139.680712, -59.244969) " points="115.055726 58.492631 164.305365 58.5036649 164.305699 59.9973066 115.05606 59.9862727"></polygon>
            <polygon id="Rectangle" fill="#E0E0E0" transform="translate(157.406633, 71.529329) rotate(11.240000) translate(-157.406633, -71.529329) " points="113.00671 70.7725613 201.806221 70.792456 201.806556 72.2860976 113.007044 72.2662029"></polygon>
            <polygon id="Rectangle" fill="#409438" opacity="0.7" transform="translate(122.797809, 73.404616) rotate(11.240000) translate(-122.797809, -73.404616) " points="111.978057 72.6553713 133.617227 72.6602193 133.617561 74.153861 111.978391 74.1490129"></polygon>
            <polygon id="Rectangle" fill="#E0E0E0" transform="translate(158.819641, 89.330720) rotate(11.240000) translate(-158.819641, -89.330720) " points="109.568238 88.5728644 208.070711 88.594933 208.071045 90.0885746 109.568572 90.0665061"></polygon>
            <g id="Group" opacity="0.5" transform="translate(108.000000, 114.000000)" fill="url(#linearGradient-7)">
                <polygon id="Rectangle" transform="translate(49.428064, 34.033828) rotate(-78.760000) translate(-49.428064, -34.033828) " points="24.8305151 -9.68819892 75.086629 -10.3305913 74.0256137 77.7558543 23.7694998 78.3982466"></polygon>
            </g>
            <polygon id="Rectangle" fill="#FFFFFF" transform="translate(157.642293, 147.937548) rotate(11.240000) translate(-157.642293, -147.937548) " points="113.982991 123.089179 201.290477 123.108739 201.301595 172.785918 113.994109 172.766357"></polygon>
            <polygon id="Rectangle" fill="#E0E0E0" transform="translate(157.146981, 97.759843) rotate(11.240000) translate(-157.146981, -97.759843) " points="107.895577 97.001988 206.398051 97.0240565 206.398385 98.5176982 107.895912 98.4956296"></polygon>
            <polygon id="Rectangle" fill="#3157B3" transform="translate(129.101893, 142.259082) rotate(11.240000) translate(-129.101893, -142.259082) " points="123.687248 124.142267 134.50843 124.144692 134.516539 160.375897 123.695356 160.373472"></polygon>
            <polygon id="Rectangle" fill="#409438" transform="translate(146.966331, 151.907826) rotate(11.240000) translate(-146.966331, -151.907826) " points="141.553022 139.767177 152.374205 139.769602 152.379639 164.048475 141.558456 164.046051"></polygon>
            <polygon id="Rectangle" fill="#F55F44" transform="translate(164.907049, 161.189315) rotate(11.240000) translate(-164.907049, -161.189315) " points="159.494995 154.652221 170.316178 154.654645 170.319103 167.726408 159.497921 167.723984"></polygon>
            <polygon id="Rectangle" fill="#FDD835" transform="translate(185.244783, 158.381611) rotate(11.240000) translate(-185.244783, -158.381611) " points="179.831224 145.119932 190.652406 145.122356 190.658342 171.643291 179.837159 171.640867"></polygon>
            <path d="M223.88143,112.24599 C214.554409,102.598658 201.707639,97.1021809 188.250679,97.0014102 C174.79372,96.9006396 161.865176,102.204102 152.393127,111.710659 C133.488507,130.663915 133.168089,161.525093 151.659372,180.879848 C168.432345,198.436951 195.491779,201.406622 215.710789,187.90925 L251.818614,225.258126 C252.749531,226.220539 254.288622,226.250495 255.256692,225.325042 L264.25401,216.721513 C265.221763,215.795733 265.251885,214.265135 264.321297,213.302407 L228.223085,175.956717 C242.510228,156.484805 240.679685,129.622858 223.88143,112.24599 Z M212.634783,172.295437 C198.410871,185.89434 175.794933,185.451568 162.120234,171.306469 C148.445536,157.161371 148.890223,134.670217 163.11348,121.070637 C177.336738,107.471056 199.952697,107.912752 213.628077,122.057199 C220.195645,128.850036 223.780653,137.959311 223.594373,147.380911 C223.408092,156.802512 219.465783,165.764597 212.634783,172.295437 Z" id="Shape" fill="url(#linearGradient-8)" fill-rule="nonzero"></path>
            <path d="M160.998805,136 C157.003585,136 156.997213,142 160.998805,142 C165.000398,142 165.000398,136 160.998805,136 Z" id="Path" fill="url(#linearGradient-9)"></path>
            <path d="M189.322175,116.007838 C178.476506,115.76548 168.607751,121.164328 163.360054,129.315218 C161.647242,131.97478 166.509315,134.325017 168.212487,131.67821 C172.557181,124.930447 180.812744,120.644534 189.743148,120.867758 C199.100952,121.10055 207.61681,126.413297 212.125395,133.786089 C213.834994,136.582776 218.31787,134.041203 216.624339,131.260461 C211.142054,122.331474 200.524546,116.272519 189.322175,116.007838 Z" id="Path" fill="url(#linearGradient-10)"></path>
            <path d="M227.883597,110.24599 C218.556341,100.598658 205.709246,95.1021809 192.251947,95.0014102 C178.794649,94.9006396 165.865778,100.204102 156.39349,109.710659 C137.488393,128.663915 137.167967,159.525093 155.659716,178.879848 C172.433947,196.435925 199.493982,199.404241 219.71275,185.906063 L255.818282,223.258126 C256.749222,224.220539 258.288352,224.250495 259.256446,223.325042 L268.253991,214.721513 C269.221769,213.795733 269.251891,212.265135 268.32128,211.302407 L232.212544,173.953531 C246.501662,154.485254 244.676539,127.62558 227.883597,110.24599 Z M216.636666,170.269945 C202.412396,183.868848 179.795887,183.426076 166.120843,169.280978 C152.445799,155.135879 152.890498,132.644725 167.114114,119.045145 C181.33773,105.445565 203.95426,105.88726 217.629985,120.031708 C224.197719,126.824544 227.782818,135.933819 227.596532,145.35542 C227.410247,154.77702 223.467838,163.739105 216.636666,170.269945 Z" id="Shape" fill="#3157B3" fill-rule="nonzero"></path>
            <path d="M165.998805,134 C162.003585,134 161.997213,140 165.998805,140 C170.000398,140 170.000398,134 165.998805,134 Z" id="Path" fill="#3157B3"></path>
            <path d="M193.322175,115.007838 C182.476506,114.76548 172.607751,120.164328 167.360054,128.315218 C165.647242,130.97478 170.509315,133.325017 172.212487,130.67821 C176.557181,123.930447 184.812744,119.644534 193.743148,119.867758 C203.100952,120.10055 211.61681,125.413297 216.125395,132.786089 C217.834994,135.582776 222.31787,133.041203 220.624339,130.260461 C215.132414,121.305963 204.52776,115.247007 193.322175,115.007838 Z" id="Path" fill="#3157B3"></path>
            <rect id="Rectangle" fill="#409438" x="39" y="212" width="1" height="6"></rect>
            <polygon id="Rectangle" fill="#409438" transform="translate(39.500000, 215.000000) rotate(90.000000) translate(-39.500000, -215.000000) " points="39.0155642 212 39.9844358 212 39.9844358 218 39.0155642 218"></polygon>
            <path d="M182.574839,2.53599238 C181.938633,2.2588654 181.611553,1.54794923 181.814751,0.883924276 C181.830311,0.834309596 181.83992,0.783018448 181.843374,0.731131851 C181.864079,0.428142053 181.682814,0.147735617 181.398201,0.0424728567 C181.113588,-0.0627899036 180.79371,0.0322717439 180.612604,0.27593775 C180.582004,0.317347246 180.556385,0.36222101 180.536277,0.409631122 C180.259402,1.0464156 179.549131,1.37379318 178.885709,1.17041007 C178.83614,1.15483588 178.784895,1.14521879 178.733056,1.14176149 C178.427895,1.11970786 178.14524,1.30324449 178.040979,1.59114833 C177.936718,1.87905217 178.036231,2.2012384 178.284635,2.38001678 C178.326007,2.41064435 178.37084,2.4362865 178.418207,2.45641299 C179.054414,2.73353997 179.381494,3.44445613 179.178295,4.10848109 C179.162735,4.15809577 179.153127,4.20938692 179.149673,4.26127351 C179.125239,4.56860565 179.309127,4.8543496 179.598801,4.95917283 C179.888474,5.06399606 180.212412,4.96201761 180.389984,4.71010126 C180.420584,4.66869177 180.446203,4.623818 180.466311,4.57640789 C180.743186,3.93962342 181.453457,3.61224584 182.116878,3.81562894 C182.166448,3.83120313 182.217693,3.84082022 182.269532,3.84427752 C182.572247,3.86500085 182.852399,3.68357156 182.957566,3.39869961 C183.062733,3.11382767 182.967758,2.79365952 182.724313,2.61238859 C182.677967,2.58061427 182.62773,2.55493822 182.574839,2.53599238 Z" id="Path" fill="#3157B3"></path>
            <path d="M43.5892219,49.5430932 C42.9506544,49.2651903 42.6223602,48.5522835 42.8263128,47.8863993 C42.8419306,47.8366457 42.8515746,47.7852109 42.8550416,47.733179 C42.8758229,47.4293409 42.6938856,47.1481493 42.408216,47.0425918 C42.1225464,46.9370343 41.8014818,47.0323621 41.6197033,47.2767104 C41.58899,47.3182358 41.563276,47.3632352 41.5430932,47.4107781 C41.2651903,48.0493456 40.5522835,48.3776398 39.8863993,48.1736872 C39.8366457,48.1580694 39.7852109,48.1484254 39.733179,48.1449584 C39.4293409,48.1241771 39.1481493,48.3061144 39.0425918,48.591784 C38.9370343,48.8774536 39.0323621,49.1985182 39.2767104,49.3802967 C39.3182358,49.41101 39.3632352,49.436724 39.4107781,49.4569068 C40.0493456,49.7348097 40.3776398,50.4477165 40.1736872,51.1136007 C40.1580694,51.1633543 40.1484254,51.2147891 40.1449584,51.266821 C40.1241771,51.5706591 40.3061144,51.8518507 40.591784,51.9574082 C40.8774536,52.0629657 41.1985182,51.9676379 41.3802967,51.7232896 C41.41101,51.6817642 41.436724,51.6367648 41.4569068,51.5892219 C41.7348097,50.9506544 42.4477165,50.6223602 43.1136007,50.8263128 C43.1633543,50.8419306 43.2147891,50.8515746 43.266821,50.8550416 C43.5706591,50.8758229 43.8518507,50.6938856 43.9574082,50.408216 C44.0629657,50.1225464 43.9676379,49.8014818 43.7232896,49.6197033 C43.6817642,49.58899 43.6367648,49.563276 43.5892219,49.5430932 Z" id="Path" fill="#FDD835"></path>
            <path d="M240.589222,243.543093 C239.950654,243.26519 239.62236,242.552284 239.826313,241.886399 C239.841931,241.836646 239.851575,241.785211 239.855042,241.733179 C239.875823,241.429341 239.693886,241.148149 239.408216,241.042592 C239.122546,240.937034 238.801482,241.032362 238.619703,241.27671 C238.58899,241.318236 238.563276,241.363235 238.543093,241.410778 C238.26519,242.049346 237.552284,242.37764 236.886399,242.173687 C236.836646,242.158069 236.785211,242.148425 236.733179,242.144958 C236.429341,242.124177 236.148149,242.306114 236.042592,242.591784 C235.937034,242.877454 236.032362,243.198518 236.27671,243.380297 C236.318236,243.41101 236.363235,243.436724 236.410778,243.456907 C237.049346,243.73481 237.37764,244.447716 237.173687,245.113601 C237.158069,245.163354 237.148425,245.214789 237.144958,245.266821 C237.124177,245.570659 237.306114,245.851851 237.591784,245.957408 C237.877454,246.062966 238.198518,245.967638 238.380297,245.72329 C238.41101,245.681764 238.436724,245.636765 238.456907,245.589222 C238.73481,244.950654 239.447716,244.62236 240.113601,244.826313 C240.163354,244.841931 240.214789,244.851575 240.266821,244.855042 C240.570659,244.875823 240.851851,244.693886 240.957408,244.408216 C241.062966,244.122546 240.967638,243.801482 240.72329,243.619703 C240.681764,243.58899 240.636765,243.563276 240.589222,243.543093 Z" id="Path" fill="#FDD835"></path>
            <circle id="Oval" fill="#F55F44" cx="103" cy="24" r="2"></circle>
            <circle id="Oval" fill="#F55F44" cx="263" cy="52" r="2"></circle>
            <circle id="Oval" fill="#3157B3" cx="250" cy="119" r="2"></circle>
            <circle id="Oval" fill="#419538" opacity="0.5" cx="2" cy="9" r="2"></circle>
        </g>
    </g>
</svg>